<svg xmlns="http://www.w3.org/2000/svg" viewBox="161 176 700 700" width="512" height="512">
<defs>
<mask id="m" maskUnits="userSpaceOnUse" x="0" y="0" width="1024" height="1024">
<path d="M280.25 629.363C286.504 619.366 292.316 608.972 298.563 598.952C310.763 579.554 323.67 560.61 337.259 542.158C427.618 420.64 551.333 324.149 700.974 289.689C736.028 281.535 771.965 277.814 807.945 278.612C794.501 301.523 780.532 332.473 770.32 356.605C734.572 441.075 713.435 531.305 738.363 621.841C740.353 629.066 743.007 636.688 744.857 643.691C744.241 642.791 740.916 637.779 740.363 637.357C737.95 636.442 729.959 623.383 727.576 620.572C724.109 616.313 719.066 612.882 716.749 607.808C710.58 594.301 707.068 579.329 701.937 565.401C699.902 559.878 700.041 547.326 699.243 541.174C695.921 515.541 697.146 489.871 700.757 464.355C701.31 460.457 703.018 454.597 703.902 450.34C705.239 443.898 703.951 438.782 705.554 432.769C705.821 431.765 706.036 432.16 705.962 430.746L704.595 429.74C704.671 428.951 705.112 423.46 705.23 423.302C705.911 422.395 707.518 416.066 707.67 415.846C708.705 416.765 708.479 416.682 708.98 417.996C709.868 417.387 710.273 417.442 710.575 416.366C712.758 408.569 722.763 365.203 727.149 362.113C728.391 359.876 731.348 350.975 732.345 348.133L731.917 347.398C733.178 342.852 737.948 333.207 738.167 331.05C737.272 329.943 736.62 329.489 734.93 329.395C729.322 329.084 722.692 332.041 717.637 334.196C715.376 335.16 709.532 335.595 706.856 336.299C701.494 337.912 695.704 339.056 690.363 340.643C686.495 341.793 680.341 342.224 677.069 343.427C668.243 346.675 659.475 349.629 650.514 352.485C644.358 354.446 638.112 357.359 632.28 360.107C624.705 363.527 616.652 366.249 609.198 369.993C601.762 373.667 593.284 379.172 585.716 382.063C576.079 385.744 569.39 390.901 560.938 396.424C555.887 399.725 550.975 401.721 545.645 405.505L545.198 405.205C545.644 403.643 546.91 403 548.307 402.223C549.776 401.417 551.255 400.631 552.744 399.864C552.126 398.914 552.474 399.374 551.692 398.488L551.79 397.973C544.554 399.553 542.002 403.34 536.32 407C480.839 442.734 431.754 489.64 390.423 540.937C390.075 541.369 389.589 541.049 389.277 540.891C374.592 557.505 358.837 581.645 345.949 599.968C343.783 603.049 334.116 617.669 332.745 620.474L333.099 621.271C327.398 631.816 326.841 632.828 319.969 642.852L319.699 642.037C313.498 649.98 282.004 709.266 279.291 718.528C310.746 718.385 365.107 704.226 395.483 694.754C497.604 662.909 596.806 633.235 703.683 663.815C736.147 673.104 780.221 691.705 806.46 713.356C799.069 710.321 789.583 706.132 782.051 703.873L781.993 704.628C774.925 703.183 761.491 697.074 753.562 696.046C749.206 695.671 742.603 698.239 738.402 697.317C721.895 693.697 709.07 689.603 691.839 690.099C683.715 690.332 671.984 687.167 663.289 686.589C649.087 685.644 634.988 687.104 620.776 688.189C601.448 688.46 582.539 691.867 563.374 693.945C562.01 694.093 558.225 695.248 556.744 695.652C551.666 697.036 546.648 698.428 541.543 699.775C537.013 700.972 532.279 701.077 527.866 702.193C521.025 703.923 514.088 706.497 507.216 708.274C501.096 709.927 494.417 711.096 488.472 712.794C482.807 713.929 474.029 719.668 468.884 720.638C452.429 723.74 439.497 728.88 424.443 735.97C420.649 737.756 411.091 738.14 406.537 739.762C397.874 742.848 389.516 746.794 380.938 750.101C377.97 751.016 372.228 750.366 369.498 751.347C358.157 755.421 347.116 760.154 335.081 761.84C333.096 762.195 328.777 761.471 326.95 762.115C312.28 767.282 299.359 770.221 283.83 771.339C269.443 772.374 255.053 774.51 240.455 773.716C236.551 773.504 231.021 775.249 226.907 774.819C215.743 774.215 209.236 763.577 214.257 753.368C218.991 743.743 227.421 734.496 231.264 724.196C233.725 717.601 233.411 698.981 242.766 697.253L243.451 697.134L244.523 695.481L245.155 695.545L245.703 694.572C245.622 694.042 245.471 693.313 245.684 692.802C247.168 689.228 249.363 685.47 250.738 681.873C252.327 677.715 253.384 673.206 255.362 669.166C256.401 667.043 259.862 665.308 260.704 663.114C261.166 661.908 261.164 662.004 261.9 660.908L262.696 661.053C264.081 659.191 268.709 650.256 269.737 647.973C269.667 643.343 277.128 633.217 279.566 629.048L280.25 629.363Z" fill="#fff"/>
<path d="M217.804 758.014C323.717 770.256 404.211 730.784 503.342 701.949C572.564 681.815 639.883 672.375 711.609 685.008C729.189 688.236 746.57 692.47 763.665 697.69C767.905 698.951 778.203 702.003 782.051 703.873L781.993 704.628C774.925 703.183 761.491 697.074 753.562 696.046C749.206 695.671 742.603 698.239 738.402 697.317C721.895 693.697 709.07 689.603 691.839 690.099C683.715 690.332 671.984 687.167 663.289 686.589C649.087 685.644 634.988 687.104 620.776 688.189C601.448 688.46 582.539 691.867 563.374 693.945C562.01 694.093 558.225 695.248 556.744 695.652C551.666 697.036 546.648 698.428 541.543 699.775C537.013 700.972 532.279 701.077 527.866 702.193C521.025 703.923 514.088 706.497 507.216 708.274C501.096 709.927 494.417 711.096 488.472 712.794C482.807 713.929 474.029 719.668 468.884 720.638C452.429 723.74 439.497 728.88 424.443 735.97C420.649 737.756 411.091 738.14 406.537 739.762C397.874 742.848 389.516 746.794 380.938 750.101C377.97 751.016 372.228 750.366 369.498 751.347C358.157 755.421 347.116 760.154 335.081 761.84C333.096 762.195 328.777 761.471 326.95 762.115C312.28 767.282 299.359 770.221 283.83 771.339C269.443 772.374 255.053 774.51 240.455 773.716C236.551 773.504 231.021 775.249 226.907 774.819C215.743 774.215 209.236 763.577 214.257 753.368C218.991 743.743 227.421 734.496 231.264 724.196C233.725 717.601 233.411 698.981 242.766 697.253L243.451 697.134L244.523 695.481L245.155 695.545C241.794 703.724 237.397 712.517 233.685 720.642C228.127 732.985 222.832 745.446 217.804 758.014Z" fill="#000"/>
<path d="M389.277 540.891C392.504 536.399 397.68 530.34 401.268 526.116C468.009 447.555 553.227 382.005 649.976 345.22C678.284 334.457 712.61 324.783 742.861 322.26C739.529 330.813 735.844 339.633 732.345 348.133L731.917 347.398C733.178 342.852 737.948 333.207 738.167 331.05C737.272 329.943 736.62 329.489 734.93 329.395C729.322 329.084 722.692 332.041 717.637 334.196C715.376 335.16 709.532 335.595 706.856 336.299C701.494 337.912 695.704 339.056 690.363 340.643C686.495 341.793 680.341 342.224 677.069 343.427C668.243 346.675 659.475 349.629 650.514 352.485C644.358 354.446 638.112 357.359 632.28 360.107C624.705 363.527 616.652 366.249 609.198 369.993C601.762 373.667 593.284 379.172 585.716 382.063C576.079 385.744 569.39 390.901 560.938 396.424C555.887 399.725 550.975 401.721 545.645 405.505L545.198 405.205C545.644 403.643 546.91 403 548.307 402.223C549.776 401.417 551.255 400.631 552.744 399.864C552.126 398.914 552.474 399.374 551.692 398.488L551.79 397.973C544.554 399.553 542.002 403.34 536.32 407C480.839 442.734 431.754 489.64 390.423 540.937C390.075 541.369 389.589 541.049 389.277 540.891Z" fill="#000"/>
<path d="M740.363 637.357C737.95 636.442 729.959 623.383 727.576 620.572C724.109 616.313 719.066 612.882 716.749 607.808C710.58 594.301 707.068 579.329 701.937 565.401C699.902 559.878 700.041 547.326 699.243 541.174C695.921 515.541 697.146 489.871 700.757 464.355C701.31 460.457 703.018 454.597 703.902 450.34C705.239 443.898 703.951 438.782 705.554 432.769C705.821 431.765 706.036 432.16 705.962 430.746L704.595 429.74C704.671 428.951 705.112 423.46 705.23 423.302C705.911 422.395 707.518 416.066 707.67 415.846C708.705 416.765 708.479 416.682 708.98 417.996C709.868 417.387 710.273 417.442 710.575 416.366C712.758 408.569 722.763 365.203 727.149 362.113C724.908 369.536 722.364 376.9 720.103 384.267C697.177 458.964 689.999 544.424 727.701 615.698C731.638 623.14 736.078 630.109 740.363 637.357Z" fill="#000"/>
<path d="M585.688 434.761C589.442 450.697 592.248 474.257 602.629 486.859C612.154 498.421 632.932 502.625 646.836 505.731C650.61 506.598 654.812 507.257 658.317 508.458C655.235 509.075 642.178 511.544 640.449 512.35L640.532 512.963C632.684 515.346 625.42 515.669 619.391 521.569C615.47 525.406 609.611 526.252 605.049 528.776C602.957 529.912 599.682 537.958 597.811 538.381C592.462 547.602 588.068 572.504 586.006 583.675C585.524 581.869 584 574.235 583.72 573.645L583.193 574.277C582.966 573.305 582.699 572.16 582.391 570.844C579.756 569.285 578.556 569.382 577.24 566.402C576.571 564.886 575.628 559.644 575.094 558.592C572.347 553.175 567.925 543.545 564.691 538.842C561.583 534.321 551.579 527.774 546.439 525.299C543.848 524.051 538.482 521.677 536.578 519.948C536.124 519.536 532.826 513.999 532.321 513.156C528.922 512.835 524.491 511.415 520.702 510.776C520.439 511.671 520.666 511.333 520.141 511.861L519.865 509.703C517.345 509.229 515.313 508.884 512.748 508.573C571.415 495.129 575.279 494.772 585.688 434.761Z" fill="#fff"/>
<path d="M519.865 509.703C537.096 513.041 561.167 517.153 571.11 532.7C576.972 541.865 582.312 562.585 583.72 573.645L583.193 574.277C582.966 573.305 582.699 572.16 582.391 570.844C579.756 569.285 578.556 569.382 577.24 566.402C576.571 564.886 575.628 559.644 575.094 558.592C572.347 553.175 567.925 543.545 564.691 538.842C561.583 534.321 551.579 527.774 546.439 525.299C543.848 524.051 538.482 521.677 536.578 519.948C536.124 519.536 532.826 513.999 532.321 513.156C528.922 512.835 524.491 511.415 520.702 510.776C520.439 511.671 520.666 511.333 520.141 511.861L519.865 509.703Z" fill="#000"/>
<path d="M597.811 538.381C605.037 521.733 623.622 515.02 640.449 512.35L640.532 512.963C632.684 515.346 625.42 515.669 619.391 521.569C615.47 525.406 609.611 526.252 605.049 528.776C602.957 529.912 599.682 537.958 597.811 538.381Z" fill="#000"/>
</mask>
</defs>
<rect x="0" y="0" width="1024" height="1024" fill="#ffffff" mask="url(#m)"/>
</svg>
