<svg xmlns="http://www.w3.org/2000/svg" viewBox="161 176 700 700" width="512" height="512">
<g transform="translate(0,1024) scale(0.1,-0.1)" fill="#ffffff" stroke="none">
<path d="M7675 7443 c-1475 -128 -2898 -929 -4006 -2253 -560 -670 -1081
-1543 -1437 -2406 l-50 -122 142 -12 c168 -15 481 -9 661 14 390 48 783 150
1505 390 902 300 1467 408 2050 393 469 -13 943 -107 1355 -270 77 -31 141
-54 142 -53 5 5 -109 81 -207 139 -529 309 -1089 459 -1725 461 -572 1 -999
-82 -2025 -395 -506 -155 -877 -241 -1164 -269 -69 -7 -113 -7 -118 -2 -12 12
196 423 332 657 575 991 1243 1763 2016 2328 662 483 1357 808 1999 935 120
24 274 46 280 40 3 -2 -27 -83 -65 -178 -312 -773 -414 -1523 -294 -2145 55
-280 170 -560 336 -819 46 -71 46 -68 9 48 -149 468 -176 1026 -75 1574 93
506 296 1073 598 1676 72 144 132 264 134 269 4 7 -311 7 -393 0z"/>
<path d="M5838 5782 c-73 -425 -158 -509 -613 -608 l-80 -17 110 -22 c415 -84
499 -171 580 -608 11 -53 22 -94 25 -90 4 5 15 49 24 98 79 420 170 515 571
595 61 13 111 24 113 25 2 2 -41 13 -95 25 -425 93 -499 163 -583 554 -16 76
-31 140 -33 142 -1 2 -10 -41 -19 -94z"/>
</g>
</svg>
